<?xml version="1.0" encoding="UTF-8" standalone="no"?>
<svg
   version="1.1"
   x="0px"
   y="0px"
   viewBox="0 0 32 32"
   enable-background="new 0 0 100 100"
   xml:space="preserve"
   id="svg2"
   sodipodi:docname="icon.svg"
   width="1024"
   height="1024"
   inkscape:version="1.3 (0e150ed, 2023-07-21)"
   inkscape:export-filename="icon-maskable.svg"
   inkscape:export-xdpi="96"
   inkscape:export-ydpi="96"
   xmlns:inkscape="http://www.inkscape.org/namespaces/inkscape"
   xmlns:sodipodi="http://sodipodi.sourceforge.net/DTD/sodipodi-0.dtd"
   xmlns="http://www.w3.org/2000/svg"
   xmlns:svg="http://www.w3.org/2000/svg"><defs
     id="defs2" /><sodipodi:namedview
     id="namedview2"
     pagecolor="#ffffff"
     bordercolor="#000000"
     borderopacity="0.25"
     inkscape:showpageshadow="2"
     inkscape:pageopacity="0.0"
     inkscape:pagecheckerboard="true"
     inkscape:deskcolor="#d1d1d1"
     showguides="true"
     inkscape:lockguides="false"
     inkscape:zoom="0.6675088"
     inkscape:cx="629.95424"
     inkscape:cy="452.42849"
     inkscape:window-width="1920"
     inkscape:window-height="1147"
     inkscape:window-x="-1"
     inkscape:window-y="349"
     inkscape:window-maximized="0"
     inkscape:current-layer="svg2" /><rect
     style="fill:#ffffff;fill-opacity:1;stroke-width:0.03125"
     id="rect1"
     width="32"
     height="32"
     x="0"
     y="0"
     inkscape:label="Background" /><g
     id="g2"
     transform="matrix(0.31451817,0,0,0.31451817,0.59023738,0.86797708)"
     inkscape:label="Icon"
     sodipodi:insensitive="true"><path
       fill="#000000"
       d="M 67.858,52.221 H 29.859 c -3.278,0 -0.772,12.144 9.391,17.251 l -5.494,10.586 c -0.497,0.936 -0.142,2.096 0.793,2.592 0.283,0.151 0.593,0.225 0.897,0.225 0.684,0 1.346,-0.37 1.694,-1.018 l 5.698,-10.986 c 1.323,0.373 2.749,0.628 4.271,0.747 -0.001,0.027 -0.008,0.053 -0.008,0.08 V 83.83 c 0,1.059 0.859,1.918 1.917,1.918 1.058,0 1.914,-0.859 1.914,-1.918 V 71.697 c 0,-0.022 -0.006,-0.043 -0.007,-0.065 1.731,-0.115 3.322,-0.386 4.777,-0.782 l 5.663,10.837 c 0.344,0.653 1.011,1.027 1.702,1.027 0.296,0 0.602,-0.071 0.884,-0.219 0.941,-0.489 1.301,-1.646 0.812,-2.586 L 59.314,69.485 C 69.716,64.386 70.887,52.221 67.858,52.221 Z M 44.001,66.67 C 39.092,65.705 34.263,62.018 33.77,56.531 l 4.55,0.161 c 0.464,2.666 2.938,7.282 5.88,9.336 0.906,0.632 0.885,0.856 -0.199,0.642 z"
       id="path2"
       sodipodi:nodetypes="sscccscccssssscccscccsccccc"
       inkscape:label="Grill" /><path
       fill="#000000"
       d="m 36.326,48.9 c -1.026,-2.052 -1.252,-4.558 -0.457,-8.774 3.191,11.168 20.966,4.33 20.966,-5.696 2.51,3.647 2.51,10.825 -0.91,14.47 h 11.283 c 1.365,-2.05 2.283,-5.315 2.276,-8.545 C 69.477,36.591 67.582,33.036 65.155,30.213 60.53,24.836 53.988,17.908 57.606,10.478 c -2.48,1.732 -6.319,4.794 -7.15,9.139 -1.025,5.355 1.699,10.211 -1.025,14.471 -1.677,2.621 -4.613,5.02 -7.98,3.138 C 37.296,34.901 39.411,28.505 41.366,25.633 31.425,29.53 25.728,38.645 30.058,48.9 Z"
       id="path1"
       inkscape:label="Flame"
       style="display:inline;fill:#e21e0f;fill-opacity:1"
       sodipodi:nodetypes="cccccccccccccc" /></g></svg>
